<?xml version="1.0" encoding="utf-8"?>
<!-- Generator: Adobe Illustrator 27.6.1, SVG Export Plug-In . SVG Version: 6.00 Build 0)  -->
<svg version="1.1" id="a" xmlns="http://www.w3.org/2000/svg" xmlns:xlink="http://www.w3.org/1999/xlink" x="0px" y="0px"
	 viewBox="0 0 63.81 50.34" style="enable-background:new 0 0 63.81 50.34;" xml:space="preserve">
<style type="text/css">
	.st0{fill:#3CA3DC;}
</style>
<path class="st0" d="M1.86,39.95L0,37.6l17.2-13.64c0.27-0.21,0.59-0.32,0.93-0.32h18.78c2.4,0,4.35,1.95,4.35,4.35
	s-1.95,4.35-4.35,4.35h-8.24v-3h8.24c0.74,0,1.35-0.61,1.35-1.35s-0.61-1.35-1.35-1.35H18.66L1.86,39.95z"/>
<path class="st0" d="M12.25,50.34l-1.86-2.35l11.39-9.03c0.27-0.21,0.59-0.32,0.93-0.32h11.71c2.14,0,4.26-0.72,5.95-2.04
	l19.68-15.26c0.42-0.32,0.68-0.79,0.75-1.32c0.06-0.53-0.09-1.04-0.42-1.46c-0.67-0.84-1.9-0.98-2.75-0.31L44.52,28.64l-1.86-2.35
	L55.77,15.9c2.13-1.69,5.25-1.34,6.95,0.78c0.84,1.05,1.21,2.36,1.05,3.69s-0.83,2.51-1.89,3.33L42.2,38.96
	c-2.22,1.72-4.99,2.67-7.79,2.67H23.23C23.23,41.63,12.25,50.34,12.25,50.34z"/>
<path class="st0" d="M28.18,18.18c-0.31,0-0.62-0.1-0.88-0.29c-0.46-0.34-0.69-0.9-0.6-1.47l0.81-4.71l-3.42-3.34
	c-0.41-0.4-0.56-1-0.38-1.54s0.65-0.94,1.21-1.02l4.73-0.69l2.12-4.28C32.02,0.33,32.54,0,33.12,0s1.09,0.32,1.35,0.84l2.12,4.29
	l4.73,0.69c0.56,0.08,1.03,0.48,1.21,1.02s0.03,1.14-0.38,1.54l-3.42,3.34l0.81,4.71c0.1,0.56-0.13,1.13-0.6,1.47
	c-0.46,0.33-1.08,0.38-1.58,0.11l-4.23-2.23l-4.23,2.23c-0.22,0.12-0.46,0.17-0.7,0.17H28.18z M28.36,8.35l1.81,1.77
	c0.35,0.34,0.52,0.84,0.43,1.33l-0.43,2.49l2.24-1.18c0.44-0.23,0.96-0.23,1.4,0l2.24,1.18l-0.43-2.49
	c-0.08-0.49,0.08-0.98,0.43-1.33l1.81-1.77l-2.5-0.36c-0.49-0.07-0.91-0.38-1.13-0.82L33.11,4.9l-1.12,2.27
	c-0.22,0.44-0.64,0.75-1.13,0.82L28.36,8.35L28.36,8.35z"/>
<circle class="st0" cx="24.5" cy="30.93" r="1.82"/>
</svg>
