<?xml version="1.0" encoding="utf-8"?>
<!-- Generator: Adobe Illustrator 27.6.1, SVG Export Plug-In . SVG Version: 6.00 Build 0)  -->
<svg version="1.1" id="a" xmlns="http://www.w3.org/2000/svg" xmlns:xlink="http://www.w3.org/1999/xlink" x="0px" y="0px"
	 viewBox="0 0 67.14 57.68" style="enable-background:new 0 0 67.14 57.68;" xml:space="preserve">
<style type="text/css">
	.st0{fill:#3CA3DC;}
</style>
<path class="st0" d="M33.72,47.81c-10.49,0-19.03-8.54-19.03-19.03S23.22,9.74,33.72,9.74s19.03,8.54,19.03,19.03
	S44.21,47.8,33.72,47.81L33.72,47.81z M33.72,12.75c-8.84,0-16.03,7.19-16.03,16.03s7.19,16.03,16.03,16.03s16.03-7.19,16.03-16.03
	S42.56,12.75,33.72,12.75z"/>
<path class="st0" d="M31.78,47.31c-0.25-0.28-6.07-6.89-6.07-18.53s5.83-18.26,6.07-18.54l2.23,2.01l-1.12-1l1.12,1
	c-0.05,0.06-5.31,6.09-5.31,16.53s5.25,16.47,5.31,16.53C34.01,45.31,31.78,47.31,31.78,47.31z"/>
<path class="st0" d="M35.66,47.31l-2.23-2.01c0.05-0.06,5.3-6.09,5.3-16.53s-5.25-16.47-5.31-16.53l2.23-2
	c0.25,0.28,6.07,6.89,6.07,18.54s-5.83,18.26-6.07,18.53L35.66,47.31z"/>
<rect x="16.96" y="32.65" class="st0" width="33.41" height="3"/>
<rect x="16.96" y="21.89" class="st0" width="33.41" height="3"/>
<path class="st0" d="M33.72,56.01c-15.94,0-28.9-12.97-28.9-28.9h3c0,14.28,11.62,25.9,25.9,25.9V56.01z"/>
<path class="st0" d="M2.57,32.36L0.29,30.4l4.68-5.44c0.26-0.3,0.63-0.49,1.02-0.52c0.41-0.03,0.79,0.1,1.09,0.36l5.44,4.68
	l-1.96,2.28l-4.3-3.7L2.57,32.36L2.57,32.36z"/>
<path class="st0" d="M62.62,30.44h-3c0-14.28-11.62-25.9-25.9-25.9v-3C49.66,1.54,62.62,14.51,62.62,30.44z"/>
<path class="st0" d="M61.33,33.1c-0.35,0-0.69-0.12-0.98-0.36l-5.44-4.68l1.96-2.28l4.3,3.7l3.7-4.3l2.28,1.96l-4.68,5.44
	C62.17,32.93,61.75,33.1,61.33,33.1z"/>
<circle class="st0" cx="29.32" cy="3.47" r="1.82"/>
</svg>
