<?xml version="1.0" encoding="utf-8"?>
<!-- Generator: Adobe Illustrator 27.6.1, SVG Export Plug-In . SVG Version: 6.00 Build 0)  -->
<svg version="1.1" id="a" xmlns="http://www.w3.org/2000/svg" xmlns:xlink="http://www.w3.org/1999/xlink" x="0px" y="0px"
	 viewBox="0 0 56.08 62.98" style="enable-background:new 0 0 56.08 62.98;" xml:space="preserve">
<style type="text/css">
	.st0{fill:#3CA3DC;}
</style>
<g>
	<path class="st0" d="M47.09,45.89h-3c0-5.54,4.51-10.05,10.05-10.05v3C50.25,38.84,47.09,42,47.09,45.89z"/>
	<path class="st0" d="M54.14,47.33H1.06c-0.83,0-1.5-0.67-1.5-1.5v-26.9c0-0.83,0.67-1.5,1.5-1.5h29.2v3H2.56v23.9h50.08V28.81
		c-4.83-0.73-8.55-4.91-8.55-9.94c0-0.4,0.16-0.78,0.44-1.06c0.28-0.28,0.63-0.42,1.07-0.44l8.55,0.05c0.82,0,1.49,0.68,1.49,1.5
		v26.9c0,0.83-0.67,1.5-1.5,1.5V47.33z M47.25,20.39c0.59,2.68,2.7,4.79,5.39,5.38v-5.35C52.64,20.42,47.25,20.39,47.25,20.39z"/>
	<path class="st0" d="M11.11,45.89h-3c0-3.89-3.16-7.05-7.05-7.05v-3C6.6,35.84,11.11,40.35,11.11,45.89z"/>
	<path class="st0" d="M1.06,28.93v-3c3.89,0,7.05-3.16,7.05-7.05h3C11.11,24.42,6.6,28.93,1.06,28.93z"/>
	<path class="st0" d="M27.6,37.85c-4.59,0-8.18-2.43-8.18-5.54s3.59-5.54,8.18-5.54v3c-2.96,0-5.18,1.34-5.18,2.54
		s2.21,2.54,5.18,2.54V37.85z"/>
	<path class="st0" d="M27.6,37.85v-3c2.96,0,5.18-1.34,5.18-2.54s-2.21-2.54-5.18-2.54v-3c4.59,0,8.18,2.43,8.18,5.54
		S32.19,37.85,27.6,37.85z"/>
	<circle class="st0" cx="34.76" cy="18.93" r="1.82"/>
</g>
<g>
	<path class="st0" d="M28.08,62.98c-7.4,0-14.8-2.82-20.44-8.45l2.12-2.12c10.1,10.1,26.53,10.1,36.63,0l2.12,2.12
		c-5.63,5.63-13.04,8.45-20.44,8.45H28.08z"/>
	<path class="st0" d="M6.78,60.06l-0.54-7.15c-0.06-0.83,0.56-1.55,1.38-1.61l7.15-0.54L15,53.75l-5.66,0.43l0.43,5.66L6.78,60.06
		L6.78,60.06z"/>
</g>
<g>
	<path class="st0" d="M45.43,10.59C40.54,5.7,34.03,3,27.11,3S13.69,5.69,8.79,10.59L6.67,8.47C12.14,3.01,19.39,0,27.11,0
		s14.98,3.01,20.44,8.47C47.55,8.47,45.43,10.59,45.43,10.59z"/>
	<path class="st0" d="M40.42,12.24l-0.23-2.99l5.66-0.43l-0.43-5.66l2.99-0.23l0.54,7.15c0.06,0.83-0.56,1.55-1.38,1.61l-7.15,0.54
		V12.24z"/>
</g>
</svg>
