<?xml version="1.0" encoding="utf-8"?>
<!-- Generator: Adobe Illustrator 27.6.1, SVG Export Plug-In . SVG Version: 6.00 Build 0)  -->
<svg version="1.1" id="Calque_1" xmlns="http://www.w3.org/2000/svg" xmlns:xlink="http://www.w3.org/1999/xlink" x="0px" y="0px"
	 viewBox="0 0 49 38" style="enable-background:new 0 0 49 38;" xml:space="preserve">
<style type="text/css">
	.st0{fill:#3CA3DC;}
</style>
<path class="st0" d="M43.58,37.43H5.16c-1.37,0-2.68-0.54-3.65-1.51C0.54,34.95,0,33.64,0,32.27V10.93c0-1.37,0.55-2.68,1.51-3.65
	c0.97-0.97,2.28-1.51,3.65-1.51h38.42c1.37,0,2.68,0.55,3.65,1.51c0.97,0.97,1.51,2.28,1.51,3.65v14.11c0,0.4-0.16,0.78-0.44,1.06
	s-0.66,0.44-1.06,0.44h-15.2c-1.31,0-2.57-0.52-3.49-1.45c-0.93-0.93-1.45-2.18-1.45-3.49c0-1.31,0.52-2.57,1.45-3.49
	c0.93-0.93,2.18-1.45,3.49-1.45h4.6v3h-4.6c-0.51,0-1.01,0.2-1.37,0.57c-0.36,0.36-0.57,0.86-0.57,1.37s0.2,1.01,0.57,1.37
	s0.86,0.57,1.37,0.57h13.7V10.93c0-0.57-0.23-1.12-0.63-1.53C44.7,9,44.15,8.77,43.58,8.77H5.16C4.59,8.77,4.04,9,3.63,9.4
	C3.23,9.81,3,10.36,3,10.93v21.34c0,0.57,0.23,1.12,0.63,1.53c0.41,0.4,0.95,0.63,1.53,0.63h38.42c0.57,0,1.12-0.23,1.53-0.63
	c0.41-0.41,0.63-0.95,0.63-1.53v-2.7h3v2.7c0,1.37-0.54,2.68-1.51,3.65C46.26,36.89,44.95,37.43,43.58,37.43z"/>
<path class="st0" d="M3,12.16H0v-7c0-1.37,0.54-2.68,1.51-3.65C2.48,0.54,3.79,0,5.16,0h31.56c1.37,0,2.68,0.54,3.65,1.51
	c0.97,0.97,1.51,2.28,1.51,3.65v2.06h-3V5.21c0-0.57-0.23-1.12-0.63-1.53c-0.4-0.41-0.95-0.63-1.53-0.63H5.16
	c-0.57,0-1.12,0.23-1.53,0.63C3.23,4.09,3,4.64,3,5.21V12.16z"/>
<path class="st0" d="M39.97,20.1c1.01,0,1.82-0.81,1.82-1.82c0-1.01-0.81-1.82-1.82-1.82c-1.01,0-1.82,0.81-1.82,1.82
	C38.15,19.29,38.97,20.1,39.97,20.1z"/>
</svg>
