<?xml version="1.0" encoding="utf-8"?>
<!-- Generator: Adobe Illustrator 27.6.1, SVG Export Plug-In . SVG Version: 6.00 Build 0)  -->
<svg version="1.1" id="Calque_1" xmlns="http://www.w3.org/2000/svg" xmlns:xlink="http://www.w3.org/1999/xlink" x="0px" y="0px"
	 viewBox="0 0 143 40" style="enable-background:new 0 0 143 40;" xml:space="preserve">
<style type="text/css">
	.st0{fill:#FFFFFF;}
	.st1{fill:#FFFFFF;}
</style>
<g>
	<path class="st0" d="M32.84,5.72L30,22.4c-0.52,3.65-2.08,6.59-4.63,8.74c-2.48,2.09-5.58,3.14-9.22,3.14c-0.1,0-0.2,0-0.3,0
		c-2.38-0.04-4.49-0.58-6.29-1.58c-1.9-1.06-3.31-2.58-4.21-4.53c-0.88-1.88-1.18-4.03-0.91-6.37l0.02-0.12L7.18,5.72
		c5.3,0,9.44,4.32,9.44,9.42c0,0.52-0.04,1.05-0.13,1.59l-0.36,2.15c-0.07,0.4-0.44,0.67-0.84,0.62l-0.37-0.05
		c-0.61-0.08-1.09,0.53-0.85,1.1l0.98,2.41l0.98,2.4c0.23,0.57,1,0.68,1.38,0.19l1.59-2.05l1.59-2.05c0.38-0.49,0.09-1.2-0.52-1.29
		l0,0c-0.42-0.06-0.71-0.45-0.64-0.87l0.97-5.72c0.77-4.53,4.7-7.85,9.3-7.85H32.84z"/>
	<g>
		<path class="st1" d="M54.9,15.55c0-2.84-0.93-5.08-2.79-6.72c-1.86-1.63-4.18-2.45-6.95-2.45H34.07v27.74h5.77v-9.4h5.32
			c2.77,0,5.08-0.82,6.95-2.45C53.97,20.63,54.9,18.39,54.9,15.55z M47.88,18.66c-0.81,0.72-1.9,1.08-3.28,1.08h-4.75v-8.38h4.75
			c1.36,0,2.45,0.36,3.26,1.09c0.82,0.73,1.23,1.76,1.23,3.09C49.09,16.91,48.69,17.94,47.88,18.66z"/>
		<path class="st1" d="M63.54,5.89l-13.4,28.23h6.34l1.81-4.3h10.64l1.81,4.3h6.34L63.69,5.89H63.54z M60.11,25.32l3.51-8.3
			l3.51,8.3H60.11z"/>
		<path class="st1" d="M125.26,5.89h-0.15l-11.2,23.59V29.1h-12.04L113.5,6.53V6.38H95.54h-1.86h-4.82l-6.3,10.72l-6.3-10.72h-6.68
			l10.15,16.49v11.25h5.74V22.76l6.99-11.36h1.23h5.77h5.32L93.11,33.97v0.15h18.59h2.2h4.14l1.81-4.3h10.64l1.81,4.3h6.34
			L125.26,5.89z M121.67,25.32l3.51-8.3l3.51,8.3H121.67z"/>
	</g>
</g>
</svg>
