<?xml version="1.0" encoding="utf-8"?>
<!-- Generator: Adobe Illustrator 27.6.1, SVG Export Plug-In . SVG Version: 6.00 Build 0)  -->
<svg version="1.1" id="Calque_1" xmlns="http://www.w3.org/2000/svg" xmlns:xlink="http://www.w3.org/1999/xlink" x="0px" y="0px"
	 viewBox="0 0 62 57" style="enable-background:new 0 0 62 57;" xml:space="preserve">
<style type="text/css">
	.st0{fill:#3CA3DC;}
</style>
<path class="st0" d="M45.19,17.91c-0.83-1.52-2.19-2.69-3.81-3.3l-6.19-2.29V1.5c0-0.4-0.16-0.78-0.44-1.06
	C34.47,0.16,34.09,0,33.69,0h-27c-0.4,0-0.78,0.16-1.06,0.44C5.35,0.72,5.19,1.1,5.19,1.5v36.41c0,5-2.77,5-3.69,5
	c-0.4,0-0.78,0.16-1.06,0.44C0.16,43.63,0,44.01,0,44.41s0.16,0.78,0.44,1.06c0.28,0.28,0.66,0.44,1.06,0.44h21.59v-3h-16
	c0.82-1.54,1.21-3.26,1.16-5V3h24v18.79h3v-6.3l5.14,1.91c0.94,0.36,1.71,1.04,2.19,1.92l16,29l2.56-1.41L45.19,17.91z"/>
<path class="st0" d="M41.44,44.36l-5.52-2l-8.93-14.67c-0.21-0.34-0.28-0.76-0.19-1.15c0.09-0.39,0.34-0.74,0.68-0.95
	c0.34-0.21,0.76-0.28,1.15-0.19c0.39,0.09,0.74,0.34,0.95,0.68l1.83,2.84c0.94,1.41,2.4,2.4,4.07,2.73c1.67,0.34,3.4,0,4.81-0.94
	l-1.66-2.5c-0.38,0.24-0.8,0.41-1.24,0.49c-0.44,0.08-0.89,0.08-1.33-0.02c-0.44-0.09-0.85-0.27-1.22-0.52
	c-0.37-0.25-0.69-0.58-0.93-0.95l-1.88-2.79c-0.66-0.97-1.67-1.64-2.82-1.88c-1.15-0.24-2.34-0.01-3.33,0.62
	c-0.99,0.63-1.69,1.62-1.96,2.76c-0.27,1.14-0.09,2.34,0.51,3.35l9.21,15.06c0.17,0.29,0.44,0.51,0.75,0.62l5.46,2l4.92,9.66
	l2.67-1.36l-5.18-10.15C42.09,44.75,41.8,44.49,41.44,44.36z"/>
<path class="st0" d="M26.95,46.19c1.01,0,1.82-0.81,1.82-1.82c0-1.01-0.81-1.82-1.82-1.82c-1.01,0-1.82,0.81-1.82,1.82
	C25.13,45.38,25.94,46.19,26.95,46.19z"/>
<path class="st0" d="M25.26,10.28H14.77v3h10.49V10.28z"/>
<path class="st0" d="M25.26,16.32H14.77v3h10.49V16.32z"/>
</svg>
