<?xml version="1.0" encoding="utf-8"?>
<!-- Generator: Adobe Illustrator 27.6.1, SVG Export Plug-In . SVG Version: 6.00 Build 0)  -->
<svg version="1.1" id="a" xmlns="http://www.w3.org/2000/svg" xmlns:xlink="http://www.w3.org/1999/xlink" x="0px" y="0px"
	 viewBox="0 0 51.24 49.62" style="enable-background:new 0 0 51.24 49.62;" xml:space="preserve">
<style type="text/css">
	.st0{fill:#3CA3DC;}
</style>
<path class="st0" d="M46.02,43.4V24.64c0-0.77-0.63-1.4-1.4-1.4h-7.05c-0.77,0-1.4,0.63-1.4,1.4V43.4h2.8V26.04h4.25V43.4
	C43.22,43.4,46.02,43.4,46.02,43.4z"/>
<path class="st0" d="M30.85,43.4V24.64c0-0.77-0.63-1.4-1.4-1.4H22.4c-0.77,0-1.4,0.63-1.4,1.4V43.4h2.8V26.04h4.25V43.4H30.85z"/>
<path class="st0" d="M15.67,43.4V24.64c0-0.77-0.63-1.4-1.4-1.4H7.22c-0.77,0-1.4,0.63-1.4,1.4V43.4h2.8V26.04h4.25V43.4H15.67z"/>
<rect x="1.39" y="46.82" class="st0" width="49.05" height="2.8"/>
<path class="st0" d="M37.34,19.68v-2.8H5.9L25.92,3.1l23.73,16.33l1.59-2.31L26.71,0.25c-0.48-0.33-1.11-0.33-1.59,0L0.6,17.13
	c-0.5,0.35-0.72,0.98-0.54,1.57s0.72,0.98,1.34,0.98C1.4,19.68,37.34,19.68,37.34,19.68z"/>
<path class="st0" d="M42.92,18.28c0-1.01-0.82-1.82-1.82-1.82s-1.82,0.82-1.82,1.82s0.82,1.82,1.82,1.82S42.92,19.28,42.92,18.28z"
	/>
</svg>
