<?xml version="1.0" encoding="utf-8"?>
<!-- Generator: Adobe Illustrator 27.6.1, SVG Export Plug-In . SVG Version: 6.00 Build 0)  -->
<svg version="1.1" id="Calque_1" xmlns="http://www.w3.org/2000/svg" xmlns:xlink="http://www.w3.org/1999/xlink" x="0px" y="0px"
	 viewBox="0 0 69 40" style="enable-background:new 0 0 69 40;" xml:space="preserve">
<style type="text/css">
	.st0{fill:#3CA3DC;}
</style>
<path class="st0" d="M43.16,24.74H0v3h43.16V24.74z"/>
<path class="st0" d="M37.85,33.36l-2.12-2.12l5-5l-5-5l2.12-2.12l6.06,6c0.28,0.28,0.43,0.66,0.43,1.06s-0.16,0.78-0.43,1.06
	L37.85,33.36z"/>
<path class="st0" d="M68.09,11.98H24.93v3h43.16V11.98z"/>
<path class="st0" d="M30.24,20.6l-6.1-6.06c-0.27-0.28-0.42-0.65-0.42-1.04s0.15-0.76,0.42-1.04l6.1-6.1l2.12,2.1l-5,5l5,5
	L30.24,20.6z"/>
<path class="st0" d="M53.98,39.73H14.14c-1.83,0-3.59-0.73-4.88-2.03c-1.3-1.3-2.02-3.05-2.03-4.88h3c0,1.04,0.42,2.03,1.15,2.76
	c0.73,0.73,1.73,1.15,2.76,1.15h39.84c1.04,0,2.03-0.42,2.76-1.15c0.73-0.73,1.15-1.73,1.15-2.76V19.54h3v13.28
	c0,1.83-0.73,3.59-2.03,4.88S55.81,39.73,53.98,39.73z"/>
<path class="st0" d="M10.2,14.7h-3V6.91C7.2,6,7.38,5.1,7.73,4.26c0.35-0.84,0.86-1.6,1.51-2.24c0.64-0.64,1.41-1.15,2.25-1.5
	S13.23,0,14.14,0h39.84c1.83,0,3.59,0.73,4.88,2.03c1.3,1.3,2.02,3.05,2.03,4.88h-3c0-1.04-0.42-2.03-1.15-2.76
	C56.01,3.42,55.02,3,53.98,3H14.14c-1.04,0-2.03,0.41-2.76,1.15c-0.73,0.73-1.15,1.73-1.15,2.76L10.2,14.7z"/>
<path class="st0" d="M8.7,19.9c1.01,0,1.82-0.81,1.82-1.82c0-1.01-0.81-1.82-1.82-1.82s-1.82,0.81-1.82,1.82
	C6.88,19.09,7.7,19.9,8.7,19.9z"/>
</svg>
