<?xml version="1.0" encoding="utf-8"?>
<!-- Generator: Adobe Illustrator 27.6.1, SVG Export Plug-In . SVG Version: 6.00 Build 0)  -->
<svg version="1.1" id="a" xmlns="http://www.w3.org/2000/svg" xmlns:xlink="http://www.w3.org/1999/xlink" x="0px" y="0px"
	 viewBox="0 0 51.38 56.71" style="enable-background:new 0 0 51.38 56.71;" xml:space="preserve">
<style type="text/css">
	.st0{fill:#3CA3DC;}
</style>
<g>
	<path class="st0" d="M27.83,56.71c-7.13,0-14.26-2.71-19.69-8.14C-2.71,37.71-2.71,20.05,8.14,9.2c5.26-5.26,12.25-8.16,19.69-8.16
		s14.43,2.9,19.69,8.15l-2.12,2.12c-4.69-4.69-10.93-7.28-17.56-7.28s-12.87,2.58-17.56,7.28c-9.7,9.69-9.7,25.45-0.02,35.14
		c9.68,9.68,25.44,9.68,35.13,0l2.12,2.12c-5.43,5.43-12.56,8.14-19.69,8.14H27.83z"/>
	<path class="st0" d="M36.2,13.29v-3l10.23-0.04L46.4,0.01h3l0.04,11.73c0,0.83-0.67,1.5-1.49,1.51L36.2,13.29z"/>
	<circle class="st0" cx="49.55" cy="44.4" r="1.82"/>
</g>
<path class="st0" d="M22.63,41.42l-2.27-1.96l7.44-8.59l-4.23-15.69l2.9-0.78l4.44,16.46c0.13,0.48,0.01,1-0.31,1.37l-7.96,9.19
	H22.63z"/>
</svg>
